<?xml version="1.0" encoding="UTF-8" standalone="no"?>
<!-- Created with Inkscape (http://www.inkscape.org/) -->

<svg
   width="1394.4056"
   height="172.46265"
   viewBox="0 0 368.93649 45.630743"
   version="1.1"
   id="svg57654"
   sodipodi:docname="pressappoco.svg"
   inkscape:version="1.1.2 (0a00cf5339, 2022-02-04)"
   xmlns:inkscape="http://www.inkscape.org/namespaces/inkscape"
   xmlns:sodipodi="http://sodipodi.sourceforge.net/DTD/sodipodi-0.dtd"
   xmlns="http://www.w3.org/2000/svg"
   xmlns:svg="http://www.w3.org/2000/svg">
  <sodipodi:namedview
     id="namedview949"
     pagecolor="#ffffff"
     bordercolor="#666666"
     borderopacity="1.0"
     inkscape:pageshadow="2"
     inkscape:pageopacity="0.0"
     inkscape:pagecheckerboard="0"
     showgrid="false"
     inkscape:zoom="0.51369497"
     inkscape:cx="762.12542"
     inkscape:cy="78.840561"
     inkscape:window-width="1866"
     inkscape:window-height="1146"
     inkscape:window-x="0"
     inkscape:window-y="0"
     inkscape:window-maximized="1"
     inkscape:current-layer="g56360" />
  <defs
     id="defs57651" />
  <g
     id="layer1"
     transform="translate(-88.005324,-76.440109)">
    <g
       id="g56360"
       transform="matrix(0.35277777,0,0,-0.35277777,-60.901524,291.24861)"
       style="display:inline">
      <g
         id="g14740"
         transform="translate(509.9995,483.4609)"
         style="stroke:#e6e6e6;stroke-width:7.80378;stroke-miterlimit:4;stroke-dasharray:none;fill:none;fill-opacity:1;stroke-opacity:1">
        <path
           d="m 0,0 v 60 h 30 c 16.569,0 30,13.432 30,30 0,16.568 -13.431,30 -30,30 H 0"
           style="fill:none;stroke:#e6e6e6;stroke-width:7.80378;stroke-linecap:round;stroke-linejoin:round;stroke-miterlimit:4;stroke-dasharray:none;stroke-opacity:1;fill-opacity:1"
           id="path14742" />
      </g>
      <g
         id="g14744"
         transform="translate(792,543.4609)"
         style="stroke:#e6e6e6;stroke-width:7.80378;stroke-miterlimit:4;stroke-dasharray:none;fill:none;fill-opacity:1;stroke-opacity:1">
        <path
           d="m 0,0 c -16.569,0 -30,13.432 -30,30 0,16.568 13.431,30 30,30 16.568,0 30,-13.432 30,-30"
           style="fill:none;stroke:#e6e6e6;stroke-width:7.80378;stroke-linecap:round;stroke-linejoin:round;stroke-miterlimit:4;stroke-dasharray:none;stroke-opacity:1;fill-opacity:1"
           id="path14746" />
      </g>
      <g
         id="g14748"
         transform="translate(792,543.4609)"
         style="stroke:#e6e6e6;stroke-width:7.80378;stroke-miterlimit:4;stroke-dasharray:none;fill:none;fill-opacity:1;stroke-opacity:1">
        <path
           d="m 0,0 c 16.568,0 30,-13.432 30,-30 0,-16.568 -13.432,-30 -30,-30 -16.569,0 -30,13.432 -30,30"
           style="fill:none;stroke:#e6e6e6;stroke-width:7.80378;stroke-linecap:round;stroke-linejoin:round;stroke-miterlimit:4;stroke-dasharray:none;stroke-opacity:1;fill-opacity:1"
           id="path14750" />
      </g>
      <g
         id="g14752"
         transform="translate(876,543.4609)"
         style="stroke:#e6e6e6;stroke-width:7.80378;stroke-miterlimit:4;stroke-dasharray:none;fill:none;fill-opacity:1;stroke-opacity:1">
        <path
           d="m 0,0 c -16.569,0 -30,13.432 -30,30 0,16.568 13.431,30 30,30 16.568,0 30,-13.432 30,-30"
           style="fill:none;stroke:#e6e6e6;stroke-width:7.80378;stroke-linecap:round;stroke-linejoin:round;stroke-miterlimit:4;stroke-dasharray:none;stroke-opacity:1;fill-opacity:1"
           id="path14754" />
      </g>
      <g
         id="g14756"
         transform="translate(876,543.4609)"
         style="stroke:#e6e6e6;stroke-width:7.80378;stroke-miterlimit:4;stroke-dasharray:none;fill:none;fill-opacity:1;stroke-opacity:1">
        <path
           d="m 0,0 c 16.568,0 30,-13.432 30,-30 0,-16.568 -13.432,-30 -30,-30 -16.569,0 -30,13.432 -30,30"
           style="fill:none;stroke:#e6e6e6;stroke-width:7.80378;stroke-linecap:round;stroke-linejoin:round;stroke-miterlimit:4;stroke-dasharray:none;stroke-opacity:1;fill-opacity:1"
           id="path14758" />
      </g>
      <g
         id="g14760"
         transform="translate(1242.0005,513.4609)"
         style="stroke:#e6e6e6;stroke-width:7.80378;stroke-miterlimit:4;stroke-dasharray:none;fill:none;fill-opacity:1;stroke-opacity:1">
        <path
           d="m 0,0 c 0,-16.568 -13.432,-30 -30,-30 -16.569,0 -30,13.432 -30,30 v 60 c 0,16.568 13.431,30 30,30 16.568,0 30,-13.432 30,-30 z"
           style="fill:none;stroke:#e6e6e6;stroke-width:7.80378;stroke-linecap:round;stroke-linejoin:round;stroke-miterlimit:4;stroke-dasharray:none;stroke-opacity:1;fill-opacity:1"
           id="path14762" />
      </g>
      <g
         id="g14764"
         transform="translate(960,603.4609)"
         style="stroke:#e6e6e6;stroke-width:7.80378;stroke-miterlimit:4;stroke-dasharray:none;fill:none;fill-opacity:1;stroke-opacity:1">
        <path
           d="m 0,0 c 16.568,0 30,-13.432 30,-30 v -90"
           style="fill:none;stroke:#e6e6e6;stroke-width:7.80378;stroke-linecap:round;stroke-linejoin:round;stroke-miterlimit:4;stroke-dasharray:none;stroke-opacity:1;fill-opacity:1"
           id="path14766" />
      </g>
      <g
         id="g14768"
         transform="translate(677.9995,573.4609)"
         style="stroke:#e6e6e6;stroke-width:7.80378;stroke-miterlimit:4;stroke-dasharray:none;fill:none;fill-opacity:1;stroke-opacity:1">
        <path
           d="M 0,0 C 0,16.568 13.432,30 30,30 H 60"
           style="fill:none;stroke:#e6e6e6;stroke-width:7.80378;stroke-linecap:round;stroke-linejoin:round;stroke-miterlimit:4;stroke-dasharray:none;stroke-opacity:1;fill-opacity:1"
           id="path14770" />
      </g>
      <g
         id="g14772"
         transform="translate(677.9995,513.4609)"
         style="stroke:#e6e6e6;stroke-width:7.80378;stroke-miterlimit:4;stroke-dasharray:none;fill:none;fill-opacity:1;stroke-opacity:1">
        <path
           d="M 0,0 C 0,-16.568 13.432,-30 30,-30 H 60"
           style="fill:none;stroke:#e6e6e6;stroke-width:7.80378;stroke-linecap:round;stroke-linejoin:round;stroke-miterlimit:4;stroke-dasharray:none;stroke-opacity:1;fill-opacity:1"
           id="path14774" />
      </g>
      <g
         id="g14776"
         transform="translate(990,543.4609)"
         style="stroke:#e6e6e6;stroke-width:7.80378;stroke-miterlimit:4;stroke-dasharray:none;fill:none;fill-opacity:1;stroke-opacity:1">
        <path
           d="M 0,0 H -60 V -60"
           style="fill:none;stroke:#e6e6e6;stroke-width:7.80378;stroke-linecap:round;stroke-linejoin:round;stroke-miterlimit:4;stroke-dasharray:none;stroke-opacity:1;fill-opacity:1"
           id="path14778" />
      </g>
      <g
         id="g14780"
         transform="translate(738,543.4609)"
         style="stroke:#e6e6e6;stroke-width:7.80378;stroke-miterlimit:4;stroke-dasharray:none;fill:none;fill-opacity:1;stroke-opacity:1">
        <path
           d="M 0,0 H -60"
           style="fill:none;stroke:#e6e6e6;stroke-width:7.80378;stroke-linecap:round;stroke-linejoin:round;stroke-miterlimit:4;stroke-dasharray:none;stroke-opacity:1;fill-opacity:1"
           id="path14782" />
      </g>
      <g
         id="g14784"
         transform="translate(1326.0005,483.4609)"
         style="stroke:#e6e6e6;stroke-width:7.80378;stroke-miterlimit:4;stroke-dasharray:none;fill:none;fill-opacity:1;stroke-opacity:1">
        <path
           d="m 0,0 h -30 c -16.569,0 -30,13.432 -30,30 v 60 c 0,16.568 13.431,30 30,30 H 0"
           style="fill:none;stroke:#e6e6e6;stroke-width:7.80378;stroke-linecap:round;stroke-linejoin:round;stroke-miterlimit:4;stroke-dasharray:none;stroke-opacity:1;fill-opacity:1"
           id="path14786" />
      </g>
      <g
         id="g14788"
         transform="translate(590.91308,485.00411)"
         style="stroke:#e6e6e6;stroke-width:7.80378;stroke-miterlimit:4;stroke-dasharray:none;fill:none;fill-opacity:1;stroke-opacity:1">
        <path
           d="m 0,0 v 60 h 30 c 16.569,0 30,13.432 30,30 0,16.568 -13.431,30 -30,30 H 0 L 60,0"
           style="fill:none;stroke:#e6e6e6;stroke-width:7.80378;stroke-linecap:round;stroke-linejoin:round;stroke-miterlimit:4;stroke-dasharray:none;stroke-opacity:1;fill-opacity:1"
           id="path14790" />
      </g>
      <g
         id="g14792"
         transform="translate(1014,483.4609)"
         style="stroke:#e6e6e6;stroke-width:7.80378;stroke-miterlimit:4;stroke-dasharray:none;fill:none;fill-opacity:1;stroke-opacity:1">
        <path
           d="m 0,0 v 60 h 30 c 16.568,0 30,13.432 30,30 0,16.568 -13.432,30 -30,30 H 0"
           style="fill:none;stroke:#e6e6e6;stroke-width:7.80378;stroke-linecap:round;stroke-linejoin:round;stroke-miterlimit:4;stroke-dasharray:none;stroke-opacity:1;fill-opacity:1"
           id="path14794" />
      </g>
      <g
         id="g14796"
         transform="translate(1098,483.4609)"
         style="stroke:#e6e6e6;stroke-width:7.80378;stroke-miterlimit:4;stroke-dasharray:none;fill:none;fill-opacity:1;stroke-opacity:1">
        <path
           d="m 0,0 v 60 h 30 c 16.569,0 30,13.432 30,30 0,16.568 -13.431,30 -30,30 H 0"
           style="fill:none;stroke:#e6e6e6;stroke-width:7.80378;stroke-linecap:round;stroke-linejoin:round;stroke-miterlimit:4;stroke-dasharray:none;stroke-opacity:1;fill-opacity:1"
           id="path14798" />
      </g>
      <g
         id="g14800"
         transform="matrix(1,0,0,-1,425.9995,543.4609)"
         style="fill:#f24dae;fill-opacity:1;stroke:#f24dae;stroke-width:7.80378;stroke-miterlimit:4;stroke-dasharray:none;stroke-opacity:1">
        <path
           d="M 0,0 30,-30 0,-60 H 30 L 60,-30 30,0 Z"
           style="fill:#f24dae;fill-opacity:1;stroke:#f24dae;stroke-width:7.80378;stroke-linecap:round;stroke-linejoin:round;stroke-miterlimit:4;stroke-dasharray:none;stroke-opacity:1"
           id="path14802" />
      </g>
      <g
         id="g14804"
         transform="translate(1410.0005,513.4609)"
         style="stroke:#e6e6e6;stroke-width:7.80378;stroke-miterlimit:4;stroke-dasharray:none;fill:none;fill-opacity:1;stroke-opacity:1">
        <path
           d="m 0,0 c 0,-16.568 -13.432,-30 -30,-30 -16.569,0 -30,13.432 -30,30 v 60 c 0,16.568 13.431,30 30,30 16.568,0 30,-13.432 30,-30 z"
           style="fill:none;stroke:#e6e6e6;stroke-width:7.80378;stroke-linecap:round;stroke-linejoin:round;stroke-miterlimit:4;stroke-dasharray:none;stroke-opacity:1;fill-opacity:1"
           id="path14806" />
      </g>
      <g
         id="g14808"
         transform="translate(1464.0005,513.4609)"
         style="fill:#fbc834;fill-opacity:1;stroke:#fbc834;stroke-width:6.38646;stroke-miterlimit:4;stroke-dasharray:none;stroke-opacity:1">
        <path
           d="m 0,0 c 0,-8.284 -6.716,-15 -15,-15 -8.284,0 -15,6.716 -15,15 0,8.284 6.716,15 15,15 C -6.716,15 0,8.284 0,0 Z"
           style="fill:#fbc834;fill-opacity:1;stroke:#fbc834;stroke-width:7.80378;stroke-linecap:round;stroke-linejoin:round;stroke-miterlimit:4;stroke-dasharray:none;stroke-opacity:1"
           id="path14810" />
      </g>
      <g
         id="g14812"
         transform="translate(1464.0005,573.4609)"
         style="fill:#40b93c;fill-opacity:1;stroke:#40b93c;stroke-width:7.80378;stroke-miterlimit:4;stroke-dasharray:none;stroke-opacity:1">
        <path
           d="m 0,0 c 0,-8.284 -6.716,-15 -15,-15 -8.284,0 -15,6.716 -15,15 0,8.284 6.716,15 15,15 C -6.716,15 0,8.284 0,0 Z"
           style="fill:#40b93c;fill-opacity:1;stroke:#40b93c;stroke-width:7.80378;stroke-linecap:round;stroke-linejoin:round;stroke-miterlimit:4;stroke-dasharray:none;stroke-opacity:1"
           id="path14814" />
      </g>
    </g>
  </g>
</svg>
